Coordinates
version=1
nRows=49
nColumns=12
inDegrees=yes

Units are S.I. units (second, meters, Newtons, ...)
Angles are in degrees

endheader
time	SC_y	SC_z	SC_x	AC_y	AC_z	AC_x	GH_y	GH_z	GH_yy	EL_x	PS_y
       0.0              -45.78          12.37          37.21          34.13           -8.6         -7.182          57.82          44.39         -128.6          45.68          69.38
  0.005177              -45.78          12.38          37.21          34.13           -8.6         -7.182          57.83          44.38         -128.6          45.68          69.39
   0.01035              -45.77          12.38           37.2          34.13         -8.601         -7.181          57.83          44.38         -128.6          45.69           69.4
   0.01553              -45.77          12.39           37.2          34.13         -8.602         -7.181          57.83          44.37         -128.6          45.69          69.41
   0.02071              -45.76          12.39          37.19          34.13         -8.602         -7.181          57.84          44.37         -128.6          45.69          69.42
   0.02588              -45.76           12.4          37.19          34.13         -8.603          -7.18          57.84          44.36         -128.6          45.69          69.44
   0.03106              -45.75           12.4          37.18          34.13         -8.604          -7.18          57.84          44.35         -128.6           45.7          69.45
   0.03624              -45.74          12.41          37.18          34.13         -8.605         -7.179          57.85          44.35         -128.6           45.7          69.47
   0.04141              -45.74          12.41          37.17          34.13         -8.606         -7.179          57.85          44.34         -128.6           45.7          69.48
   0.04659              -45.73          12.42          37.17          34.13         -8.607         -7.178          57.85          44.33         -128.6          45.71           69.5
   0.05177              -45.72          12.43          37.16          34.13         -8.608         -7.178          57.86          44.32         -128.5          45.71          69.52
   0.05694              -45.71          12.44          37.15          34.13         -8.609         -7.177          57.86          44.31         -128.5          45.72          69.54
   0.06212               -45.7          12.44          37.14          34.13          -8.61         -7.176          57.87           44.3         -128.5          45.72          69.56
    0.0673              -45.69          12.45          37.14          34.13         -8.612         -7.176          57.87          44.29         -128.5          45.73          69.58
   0.07247              -45.68          12.46          37.13          34.13         -8.613         -7.175          57.88          44.28         -128.5          45.73          69.61
   0.07765              -45.67          12.47          37.12          34.13         -8.615         -7.174          57.89          44.27         -128.5          45.74          69.64
   0.08283              -45.65          12.48           37.1          34.13         -8.616         -7.173          57.89          44.25         -128.5          45.75          69.67
     0.088              -45.64           12.5          37.09          34.13         -8.618         -7.172           57.9          44.24         -128.5          45.75           69.7
   0.09318              -45.62          12.51          37.08          34.13          -8.62         -7.171          57.91          44.22         -128.5          45.76          69.74
   0.09836               -45.6          12.52          37.07          34.13         -8.623          -7.17          57.92           44.2         -128.4          45.77          69.77
    0.1035              -45.58          12.54          37.05          34.13         -8.625         -7.169          57.93          44.18         -128.4          45.78          69.82
    0.1087              -45.56          12.56          37.03          34.13         -8.628         -7.167          57.94          44.16         -128.4          45.79          69.86
    0.1139              -45.54          12.58          37.01          34.13         -8.631         -7.166          57.95          44.13         -128.4           45.8          69.92
    0.1191              -45.51           12.6          36.99          34.13         -8.634         -7.164          57.96          44.11         -128.4          45.82          69.97
    0.1242              -45.49          12.62          36.97          34.13         -8.638         -7.162          57.98          44.08         -128.3          45.83          70.04
    0.1294              -45.45          12.65          36.94          34.13         -8.642          -7.16           58.0          44.04         -128.3          45.85          70.11
    0.1346              -45.42          12.68          36.91          34.13         -8.647         -7.158          58.01          44.01         -128.3          45.87          70.19
    0.1398              -45.38          12.71          36.88          34.13         -8.652         -7.155          58.04          43.96         -128.2          45.89          70.28
    0.1449              -45.33          12.75          36.84          34.13         -8.658         -7.152          58.06          43.92         -128.2          45.91          70.38
    0.1501              -45.28           12.8           36.8          34.13         -8.664         -7.148          58.09          43.86         -128.2          45.94           70.5
    0.1553              -45.22          12.85          36.75          34.13         -8.672         -7.145          58.12           43.8         -128.1          45.97          70.63
    0.1605              -45.15           12.9          36.69          34.14         -8.681          -7.14          58.15          43.73         -128.1           46.0          70.78
    0.1657              -45.07          12.97          36.63          34.14         -8.691         -7.135          58.19          43.65         -128.0          46.04          70.96
    0.1708              -44.98          13.04          36.56          34.14         -8.703         -7.129          58.24          43.55         -127.9          46.09          71.16
     0.176              -44.87          13.13          36.47          34.14         -8.717         -7.122           58.3          43.44         -127.8          46.14           71.4
    0.1812              -44.75          13.24          36.36          34.14         -8.733         -7.113          58.36          43.31         -127.7           46.2          71.68
    0.1864               -44.6          13.36          36.24          34.14         -8.752         -7.103          58.44          43.15         -127.6          46.28          72.01
    0.1915              -44.42          13.51           36.1          34.14         -8.775         -7.091          58.53          42.96         -127.4          46.37          72.41
    0.1967               -44.2           13.7          35.92          34.14         -8.803         -7.077          58.65          42.74         -127.2          46.48          72.89
    0.2019              -43.93          13.92           35.7          34.14         -8.837         -7.059          58.79          42.46         -127.0          46.62          73.48
    0.2071               -43.6          14.19          35.43          34.15         -8.879         -7.038          58.96          42.12         -126.7          46.78          74.21
    0.2122              -43.19          14.53           35.1          34.15         -8.932         -7.011          59.17          41.69         -126.4          46.99          75.12
    0.2174              -42.68          14.96          34.68          34.15         -8.998         -6.977          59.44          41.15         -125.9          47.25          76.26
    0.2226              -42.02          15.51          34.14          34.16         -9.082         -6.933          59.78          40.47         -125.4          47.58          77.72
    0.2278              -41.18          16.21          33.46          34.16          -9.19         -6.878          60.21          39.59         -124.7          48.01          79.58
    0.2329              -40.11          17.11          32.58          34.17         -9.329         -6.807          60.77          38.47         -123.7          48.55          81.97
    0.2381              -38.73          18.26          31.45          34.18         -9.505         -6.716          61.49          37.04         -122.6          49.25          85.02
    0.2433               -37.0           19.7          30.04          34.19         -9.727         -6.601          62.38          35.23         -121.1          50.12          88.86
    0.2485              -34.89          21.46          28.32          34.21         -9.998         -6.462          63.48          33.04         -119.3          51.19          93.53
